<svg width="438" height="380" viewBox="0 0 438 380" fill="none" xmlns="http://www.w3.org/2000/svg">
<g clip-path="url(#clip0_177_530)">
<path d="M225.542 189.21C227.111 195.584 225.012 201.565 220.856 202.569C216.699 203.573 212.059 199.219 210.49 192.843C209.828 190.304 209.798 187.643 210.404 185.082L204.107 157.99L217.196 155.283L222.014 182.279C223.741 184.277 224.951 186.653 225.542 189.21Z" fill="#FDADB0"/>
<path d="M170.667 344.125L171.473 361.882L170.666 366.795L173.492 372.528L195.701 374.984L196.912 364.338L185.202 358.196L184.862 348.163L170.667 344.125Z" fill="#FDADB0"/>
<path d="M194.085 370.89L192.874 372.528L169.616 365.731C169.616 365.731 170.665 376.213 170.665 378.26C170.665 380.307 209.026 380.307 214.798 379.488C220.57 378.669 218.717 373.346 218.717 373.346L194.779 361.856L194.085 370.89Z" fill="#2F2E43"/>
<path d="M112.806 331.054L107.966 348.139L105.65 352.532L106.519 358.88L126.784 368.414L131.291 358.721L122.136 349.102L127.879 334.001L112.806 331.054Z" fill="#FDADB0"/>
<path d="M126.546 364.011L124.881 365.17L104.991 351.183C104.991 351.183 102.678 361.454 102.031 363.393C101.385 365.333 137.728 377.782 143.455 378.879C149.183 379.976 149.106 374.332 149.106 374.332L130.054 355.678L126.546 364.011Z" fill="#2F2E43"/>
<path d="M172.232 50.9707L173.08 64.9358L147.364 66.2586L155.328 47.8595L172.232 50.9707Z" fill="#FDADB0"/>
<path d="M173.736 62.8469C166.843 65.9645 155.818 65.1116 143.324 62.8469L141.372 150.622C141.372 150.622 180.455 158.59 193.893 143.888L186.82 72.1702L173.736 62.8469Z" fill="#E0E1E2"/>
<path d="M189.649 146.039L134.474 151.569L107.245 339.049H128.108L163.835 210.585L166.664 356.171H185.76L202.026 177.953L189.649 146.039Z" fill="#2F2E43"/>
<path d="M151.169 57.4681L132.63 68.5926C125.607 72.8068 122.297 81.3139 124.59 89.2554L138.918 138.878C138.918 138.878 115.586 179.523 123.168 183.109C140.204 191.167 165.627 189.205 165.627 189.205L159.945 91.8925L151.169 57.4681Z" fill="#3F3D58"/>
<path d="M172.931 62.4779L193.893 70.7359L198.843 132.054L212.708 181.452C189.225 190.144 191.417 186.094 191.417 186.094L187.527 100.857L172.931 62.4779Z" fill="#3F3D58"/>
<path d="M203.553 180.407L203.481 180.072L182.054 79.5771C181.455 76.7692 182.221 73.9546 184.154 71.8546C186.087 69.7543 188.805 68.787 191.609 69.2004C195.067 69.7102 197.836 72.2648 198.662 75.7085L222.198 173.809L203.553 180.407Z" fill="#3F3D58"/>
<path d="M161.073 54.6808C172.596 54.6808 181.937 45.2088 181.937 33.5245C181.937 21.8402 172.596 12.3682 161.073 12.3682C149.551 12.3682 140.21 21.8402 140.21 33.5245C140.21 45.2088 149.551 54.6808 161.073 54.6808Z" fill="#FDADB0"/>
<path d="M170.999 6.11481C175.595 7.75265 178.225 8.68986 180.633 11.043C184.702 15.0178 185.374 20.3295 185.997 25.2649C186.486 29.126 187.117 34.118 184.887 39.8215C184.126 41.7679 180.435 50.4399 173.37 51.5358C171.983 51.751 168.725 51.8076 169.664 51.1047C178.354 44.5995 182.062 40.6723 181.758 30.6467C181.569 24.4172 172.182 17.6914 166.608 16.4823C164.26 15.9731 161.134 16.4383 158.893 18.3043C154.208 22.2042 154.408 38.3309 149.468 41.702C147.436 43.0884 148.79 33.3293 147.359 34.9119C144.534 38.0346 146.346 42.8167 146.853 44.6379C149.261 53.2765 153.8 54.122 156.151 61.4989C158.69 69.4633 155.495 76.9617 154.737 78.7398C153.419 81.833 151.157 87.1415 145.989 89.6883C139.429 92.9209 134.259 88.7114 131.209 92.3202C129.504 94.3376 130.426 96.4743 127.347 102.749C126.342 104.798 125.839 105.822 125.394 105.786C123.289 105.614 119.88 88.523 125.393 72.6065C127.707 65.9269 129.974 59.3826 136.05 54.2653C139.263 51.5598 141.957 50.5862 142.724 47.4268C143.82 42.9132 139.27 40.9866 138.358 33.8649C137.735 28.9942 137.297 22.0283 138.993 17.5635C140.595 13.3472 141.985 9.68718 145.624 6.36867C146.498 5.57159 153.552 0.153602 161.033 0.000769409C164.477 -0.0694885 167.007 4.69182 170.999 6.11481Z" fill="#2F2E43"/>
<path d="M215.085 190.925C243.267 190.925 266.114 167.758 266.114 139.18C266.114 110.602 243.267 87.4349 215.085 87.4349C186.902 87.4349 164.056 110.602 164.056 139.18C164.056 167.758 186.902 190.925 215.085 190.925Z" fill="#8204FF"/>
<path d="M202.173 172.94C205.27 161.609 208.368 150.278 211.466 138.946C212.125 136.534 212.636 133.855 214.145 131.808C215.312 130.225 217.148 129.189 219.091 129.84C223.722 131.392 223.647 138.169 223.565 142.123C223.441 148.092 222.112 154.048 219.666 159.481C219.331 160.226 219.457 161.114 220.203 161.557C220.847 161.939 221.913 161.762 222.251 161.013C224.7 155.572 226.156 149.749 226.494 143.774C226.786 138.619 226.808 131.82 222.402 128.306C220.248 126.588 217.499 126.078 214.974 127.265C212.478 128.438 210.955 130.867 209.996 133.382C208.931 136.178 208.296 139.177 207.507 142.062L204.966 151.359C203.073 158.284 201.179 165.208 199.286 172.133C198.771 174.018 201.658 174.822 202.173 172.94Z" fill="white"/>
<path d="M215.445 157.159C217.362 149.863 218.341 142.318 218.349 134.768C218.351 132.815 215.358 132.812 215.356 134.768C215.348 142.063 214.41 149.303 212.559 156.352C212.062 158.241 214.949 159.047 215.445 157.159Z" fill="white"/>
<path d="M184.674 157.071C186.68 147.263 188.851 137.424 191.635 127.809C193.893 120.013 197.786 111.178 206.001 108.352C210.081 106.948 214.504 107.174 218.68 107.989C222.821 108.796 227.016 109.999 230.833 111.837C234.446 113.578 237.788 115.977 240.167 119.282C242.515 122.545 243.977 126.331 244.765 130.274C246.594 139.424 244.441 148.771 242.029 157.59C241.708 158.763 241.38 159.935 241.052 161.107C240.524 162.989 243.411 163.792 243.938 161.913C246.603 152.406 249.372 142.473 248.13 132.495C247.593 128.179 246.399 123.94 244.272 120.142C242.092 116.25 238.946 113.068 235.176 110.756C231.373 108.424 227.092 106.939 222.805 105.825C218.251 104.641 213.513 103.913 208.823 104.574C204.401 105.198 200.417 107.324 197.285 110.534C194.077 113.823 191.908 117.932 190.307 122.227C188.541 126.963 187.388 131.939 186.174 136.842C184.89 142.025 183.693 147.229 182.582 152.453C182.312 153.722 182.048 154.993 181.788 156.264C181.624 157.066 182.018 157.904 182.833 158.131C183.574 158.338 184.509 157.877 184.674 157.071Z" fill="white"/>
<path d="M200.1 125.696C202.434 118.514 209.951 114.068 217.228 114.56C225.294 115.107 232.286 121.08 235.118 128.597C236.8 133.064 237.294 137.98 236.587 142.706C236.466 143.516 236.788 144.338 237.632 144.573C238.34 144.77 239.351 144.329 239.473 143.513C240.887 134.067 238.289 123.773 230.957 117.385C227.519 114.389 223.308 112.316 218.801 111.695C214.466 111.098 210.096 111.912 206.258 114.051C202.048 116.399 198.723 120.246 197.214 124.889C196.61 126.749 199.499 127.546 200.1 125.696Z" fill="white"/>
<path d="M193.732 139.616C193.089 147.402 191.154 155.101 188.023 162.242C187.695 162.99 187.808 163.872 188.56 164.318C189.198 164.696 190.277 164.526 190.607 163.773C193.968 156.109 196.035 147.976 196.725 139.616C196.793 138.798 195.989 138.098 195.228 138.098C194.363 138.098 193.8 138.796 193.732 139.616Z" fill="white"/>
<path d="M229.887 148.307C229.244 156.093 227.309 163.792 224.178 170.933C223.85 171.681 223.963 172.563 224.715 173.009C225.352 173.387 226.432 173.217 226.762 172.465C230.123 164.8 232.19 156.667 232.88 148.307C232.947 147.489 232.144 146.789 231.383 146.789C230.517 146.789 229.954 147.487 229.887 148.307Z" fill="white"/>
<path d="M201.263 142.267C203.187 134.528 206.376 127.193 210.703 120.526C211.765 118.89 209.174 117.368 208.118 118.994C203.662 125.862 200.359 133.489 198.377 141.46C197.905 143.354 200.791 144.163 201.263 142.267Z" fill="white"/>
<path d="M0 379.021C0 379.421 0.317292 379.743 0.712406 379.743H437.288C437.683 379.743 438 379.421 438 379.021C438 378.62 437.683 378.298 437.288 378.298H0.712406C0.317292 378.298 0 378.62 0 379.021Z" fill="#3F3D58"/>
<path d="M172.012 128.627C178.455 127.94 184.004 130.88 184.405 135.194C184.807 139.507 179.909 143.56 173.463 144.247C170.892 144.559 168.289 144.218 165.873 143.253L138.539 145.803L137.719 132.283L164.752 131.205C166.944 129.748 169.433 128.865 172.012 128.627Z" fill="#FDADB0"/>
<path d="M138.71 69.234C132.094 68.289 125.886 72.7005 124.511 79.3309C119.713 102.463 111.103 151.738 124.626 152.561C142.307 153.637 159.281 149.334 159.281 149.334L155.038 124.591L141.246 123.157L149.359 84.6795C150.899 77.3736 146.006 70.2759 138.71 69.234Z" fill="#3F3D58"/>
</g>
<defs>
<clipPath id="clip0_177_530">
<rect width="438" height="380" fill="white"/>
</clipPath>
</defs>
</svg>
